<?xml version="1.0" encoding="UTF-8"?>
<svg id="Layer_1" xmlns="http://www.w3.org/2000/svg" viewBox="0 0 929.72 929.72">
  <defs>
    <style>
      .cls-1 {
        fill: #d1d3d4;
      }

      .cls-2 {
        fill: none;
        stroke: #d1d3d4;
        stroke-miterlimit: 10;
        stroke-width: 50px;
      }
    </style>
  </defs>
  <g>
    <path class="cls-1" d="M755.39,278.06c0,37.3-30.23,67.55-67.54,67.55H237.99c-37.3,0-67.54-30.24-67.54-67.55s30.23-67.54,67.54-67.54h449.85c37.3,0,67.54,30.24,67.54,67.54Z"/>
    <path class="cls-1" d="M755.39,464.86c0,37.3-30.23,67.55-67.54,67.55H237.99c-37.3,0-67.54-30.24-67.54-67.55s30.23-67.54,67.54-67.54h449.85c37.3,0,67.54,30.24,67.54,67.54Z"/>
    <path class="cls-1" d="M759.26,651.65c0,37.3-30.23,67.55-67.54,67.55H241.87c-37.3,0-67.54-30.24-67.54-67.55s30.23-67.54,67.54-67.54h449.85c37.3,0,67.54,30.24,67.54,67.54Z"/>
  </g>
  <circle class="cls-2" cx="464.86" cy="464.86" r="439.86"/>
</svg>