<?xml version="1.0" encoding="UTF-8"?>
<svg id="Layer_1" xmlns="http://www.w3.org/2000/svg" viewBox="0 0 876.24 876.24">
  <defs>
    <style>
      .cls-1 {
        stroke-linejoin: round;
        stroke-width: 22px;
      }

      .cls-1, .cls-2 {
        fill: none;
        stroke: #fff;
      }

      .cls-2 {
        stroke-miterlimit: 10;
        stroke-width: 28px;
      }
    </style>
  </defs>
  <circle class="cls-2" cx="438.12" cy="438.12" r="271.26"/>
  <g>
    <g id="_x3C_Radial_Repeat_x3E_">
      <path class="cls-1" d="M11,605.42l146.77,22.22c-11.46-15.6-25.36-37.81-36.49-66.51-10.78-27.82-15.51-52.83-17.65-71.71-30.88,38.67-61.75,77.33-92.63,116Z"/>
    </g>
    <g id="_x3C_Radial_Repeat_x3E_-2" data-name="_x3C_Radial_Repeat_x3E_">
      <path class="cls-1" d="M17.8,254.4l88.07,119.5c2.93-19.13,8.8-44.66,21.23-72.83,12.04-27.29,26.39-48.32,38.22-63.19-49.17,5.51-98.35,11.01-147.52,16.52Z"/>
    </g>
    <g id="_x3C_Radial_Repeat_x3E_-3" data-name="_x3C_Radial_Repeat_x3E_">
      <path class="cls-1" d="M270.82,11l-22.22,146.77c15.6-11.46,37.81-25.36,66.51-36.49,27.82-10.78,52.83-15.51,71.71-17.65-38.67-30.88-77.33-61.75-116-92.63Z"/>
    </g>
    <g id="_x3C_Radial_Repeat_x3E_-4" data-name="_x3C_Radial_Repeat_x3E_">
      <path class="cls-1" d="M621.84,17.8l-119.5,88.07c19.13,2.93,44.66,8.8,72.83,21.23,27.29,12.04,48.32,26.39,63.19,38.22-5.51-49.17-11.01-98.35-16.52-147.52Z"/>
    </g>
    <g id="_x3C_Radial_Repeat_x3E_-5" data-name="_x3C_Radial_Repeat_x3E_">
      <path class="cls-1" d="M865.24,270.82l-146.77-22.22c11.46,15.6,25.36,37.81,36.49,66.51,10.78,27.82,15.51,52.83,17.65,71.71,30.88-38.67,61.75-77.33,92.63-116Z"/>
    </g>
    <g id="_x3C_Radial_Repeat_x3E_-6" data-name="_x3C_Radial_Repeat_x3E_">
      <path class="cls-1" d="M858.44,621.84l-88.07-119.5c-2.93,19.13-8.8,44.66-21.23,72.83-12.04,27.29-26.39,48.32-38.22,63.19,49.17-5.51,98.35-11.01,147.52-16.52Z"/>
    </g>
    <g id="_x3C_Radial_Repeat_x3E_-7" data-name="_x3C_Radial_Repeat_x3E_">
      <path class="cls-1" d="M605.42,865.24l22.22-146.77c-15.6,11.46-37.81,25.36-66.51,36.49-27.82,10.78-52.83,15.51-71.71,17.65,38.67,30.88,77.33,61.75,116,92.63Z"/>
    </g>
    <g id="_x3C_Radial_Repeat_x3E_-8" data-name="_x3C_Radial_Repeat_x3E_">
      <path class="cls-1" d="M254.4,858.44l119.5-88.07c-19.13-2.93-44.66-8.8-72.83-21.23-27.29-12.04-48.32-26.39-63.19-38.22,5.51,49.17,11.01,98.35,16.52,147.52Z"/>
    </g>
  </g>
</svg>